<?xml version="1.0" encoding="UTF-8"?><svg id="Warstwa_2" xmlns="http://www.w3.org/2000/svg" xmlns:xlink="http://www.w3.org/1999/xlink" viewBox="0 0 62.81 47.49"><defs><style>.cls-1{fill:url(#Gradient_bez_nazwy_13);stroke:#fff;stroke-miterlimit:10;}.cls-2{fill:url(#Gradient_bez_nazwy_10);}</style><linearGradient id="Gradient_bez_nazwy_10" x1="0" y1="23.74" x2="62.81" y2="23.74" gradientUnits="userSpaceOnUse"><stop offset="0" stop-color="#2c55c9"/><stop offset="1" stop-color="#fe06aa"/></linearGradient><linearGradient id="Gradient_bez_nazwy_13" x1="43.91" y1="23.74" x2="20.89" y2="23.74" gradientUnits="userSpaceOnUse"><stop offset="0" stop-color="#2c55c9"/><stop offset="1" stop-color="#fff"/></linearGradient></defs><g id="Warstwa_1-2"><rect class="cls-2" width="62.81" height="47.49" rx="12" ry="12"/><path class="cls-1" d="M42.63,41.23c-4.19,1.92-15.33-2.52-19.77-12.24s-.53-21.05,3.66-22.97h0c1.1-.5,2.4-.02,2.91,1.08l1.73,3.78c.49,1.06.46,2.28-.08,3.32-1.06,2.03-4.38,3.34-.72,11.36,2.94,6.43,6.71,6.22,8.92,6.84,1.21.34,2.24,1.13,2.77,2.28l1.67,3.65c.5,1.1.02,2.4-1.08,2.91h0Z"/></g></svg>