<?xml version="1.0" encoding="UTF-8"?><svg id="Warstwa_2" xmlns="http://www.w3.org/2000/svg" viewBox="0 0 65.81 50.49"><defs><style>.cls-1,.cls-2{fill:#fff;stroke:#000;stroke-miterlimit:10;stroke-width:3px;}.cls-2{stroke-linecap:round;}</style></defs><g id="Warstwa_1-2"><rect class="cls-2" x="1.5" y="1.5" width="62.81" height="47.49" rx="12" ry="12"/><path class="cls-1" d="M44.13,42.73c-4.19,1.92-15.33-2.52-19.77-12.24s-.53-21.05,3.66-22.97h0c1.1-.5,2.4-.02,2.91,1.08l1.73,3.78c.49,1.06.46,2.28-.08,3.32-1.06,2.03-4.38,3.34-.72,11.36,2.94,6.43,6.71,6.22,8.92,6.84,1.21.34,2.24,1.13,2.77,2.28l1.67,3.65c.5,1.1.02,2.4-1.08,2.91h0Z"/></g></svg>