<?xml version="1.0" encoding="UTF-8"?><svg id="Warstwa_2" xmlns="http://www.w3.org/2000/svg" xmlns:xlink="http://www.w3.org/1999/xlink" viewBox="0 0 634.17 228"><defs><style>.cls-1{fill:#6f6f6f;}.cls-2{fill:#757575;}.cls-3{fill:#525252;}.cls-4{fill:#646464;}.cls-5{fill:#181818;}.cls-6{fill:#5f5f5f;}.cls-7{fill:#111;}.cls-8{fill:#585858;}.cls-9{fill:#5a5a5a;}.cls-10{fill:#4f4f4f;}.cls-11{fill:#7c7c7c;}.cls-12{fill:#313131;}.cls-13{fill:#898989;}.cls-14{fill:#7b7b7b;}.cls-15{fill:#cacaca;}.cls-16{fill:#434343;}.cls-17{fill:#252525;}.cls-18{fill:#010101;}.cls-19{fill:#8b8b8b;}.cls-20{fill:#9c9c9c;}.cls-21{fill:#797979;}.cls-22{fill:#838383;}.cls-23{fill:#2c2c2c;}.cls-24{fill:#141414;}.cls-25{fill:#c3c3c3;}.cls-26{fill:#2a2a2a;}.cls-27{fill:#9a9a9a;}.cls-28{fill:#fcfcfc;}.cls-29{fill:#777;}.cls-30{fill:#727272;}.cls-31{fill:#b8b8b8;}.cls-32{fill:#d7d7d7;}.cls-33{fill:#b1b1b1;}.cls-34{fill:#a7a7a7;}.cls-35{fill:#4a4a4a;}.cls-36{fill:#848484;}.cls-37{fill:#7d7d7d;}.cls-38{fill:#4e4e4e;}.cls-39{fill:#f6f6f6;}.cls-40{fill:#3e3e3e;}.cls-41{fill:#121212;}.cls-42{fill:#505050;}.cls-43{fill:#080808;}.cls-44{fill:#c2c2c2;}.cls-45{fill:#767676;}.cls-46{fill:#272727;}.cls-47{fill:#494949;}.cls-48{fill:#3f3f3f;}.cls-49{fill:#9f9f9f;}.cls-50{fill:#4d4d4d;}.cls-51{fill:#0c0c0c;}.cls-52{fill:#bababa;}.cls-53{fill:#7e7e7e;}.cls-54{fill:#8f8f8f;}.cls-55{fill:#020202;}.cls-56{fill:#626262;}.cls-57{fill:#2d2d2d;}.cls-58{fill:#a4a4a4;}.cls-59{fill:#c9c9c9;}.cls-60{fill:#fff;}.cls-61{fill:#5e5e5e;}.cls-62{fill:#1e1e1e;}.cls-63{fill:#f0f0f0;}.cls-64{fill:#383838;}.cls-65{fill:#cdcdcd;}.cls-66{fill:#131313;}.cls-67{fill:#3c3c3c;}.cls-68{fill:#a6a6a6;}.cls-69{fill:#6e6e6e;}.cls-70{fill:#090909;}.cls-71{fill:#424242;}.cls-72{fill:#cecece;}.cls-73{fill:#e9e9e9;}.cls-74{fill:#5b5b5b;}.cls-75{fill:#9b9b9b;}.cls-76{fill:#606060;}.cls-77{fill:#e1e1e1;}.cls-78{fill:#050505;}.cls-79{fill:#262626;}.cls-80{fill:#535353;}.cls-81{fill:#060606;}.cls-82{fill:none;}.cls-83{fill:#4c4c4c;}.cls-84{fill:#303030;}.cls-85{fill:#e2e2e2;}.cls-86{fill:#8d8d8d;}.cls-87{fill:#e5e5e5;}.cls-88{fill:#1c1c1c;}.cls-89{fill:#b2b2b2;}.cls-90{fill:#d5d5d5;}.cls-91{fill:#6a6a6a;}.cls-92{fill:#2f2f2f;}.cls-93{fill:#fbfbfb;}.cls-94{fill:#171717;}.cls-95{fill:#e0e0e0;}.cls-96{fill:#8e8e8e;}.cls-97{fill:#f9f9f9;}.cls-98{fill:#8a8a8a;}.cls-99{fill:#f2f2f2;}.cls-100{fill:#404040;}.cls-101{fill:#bbb;}.cls-102{fill:#a0a0a0;}.cls-103{fill:#e3e3e3;}.cls-104{fill:#737373;}.cls-105{fill:#929292;}.cls-106{fill:#3b3b3b;}.cls-107{fill:#bdbdbd;}.cls-108{fill:#1f1f1f;}.cls-109{fill:#363636;}.cls-110{fill:#bfbfbf;}.cls-111{fill:#282828;}.cls-112{fill:#909090;}.cls-113{fill:#636363;}.cls-114{fill:#b0b0b0;}.cls-115{fill:#d8d8d8;}.cls-116{fill:#c4c4c4;}.cls-117{fill:#3a3a3a;}.cls-118{fill:#acacac;}.cls-119{fill:#c8c8c8;}.cls-120{fill:#454545;}.cls-121{fill:#6c6c6c;}.cls-122{fill:#656565;}.cls-123{fill:#373737;}.cls-124{fill:#202020;}.cls-125{fill:#f1f1f1;}.cls-126{fill:#575757;}.cls-127{fill:#212121;}.cls-128{fill:#686868;}.cls-129{fill:#666;}.cls-130{fill:#dbdbdb;}.cls-131{fill:#8c8c8c;}.cls-132{fill:#444;}.cls-133{fill:silver;}.cls-134{fill:#d3d3d3;}.cls-135{fill:#222;}.cls-136{fill:#939393;}.cls-137{fill:#878787;}.cls-138{fill:#555;}.cls-139{fill:#cbcbcb;}.cls-140{fill:#2b2b2b;}.cls-141{fill:#969696;}.cls-142{fill:#030303;}.cls-143{fill:#868686;}.cls-144{fill:#6d6d6d;}.cls-145{fill:#616161;}.cls-146{fill:#0d0d0d;}.cls-147{fill:#ddd;}.cls-148{fill:#333;}.cls-149{fill:#717171;}.cls-150{fill:#474747;}.cls-151{fill:#c5c5c5;}.cls-152{fill:#efefef;}.cls-153{fill:#0f0f0f;}.cls-154{fill:#595959;}.cls-155{fill:#1a1a1a;}.cls-156{fill:#1d1d1d;}.cls-157{fill:#0e0e0e;}.cls-158{fill:#dfdfdf;}.cls-159{fill:#eee;}.cls-160{fill:#999;}.cls-161{fill:#747474;}.cls-162{fill:#a8a8a8;}.cls-163{fill:#1b1b1b;}.cls-164{fill:#191919;}.cls-165{fill:#0b0b0b;}.cls-166{fill:#515151;}.cls-167{fill:#9e9e9e;}.cls-168{fill:#d0d0d0;}.cls-169{fill:#919191;}.cls-170{fill:#d6d6d6;}.cls-171{fill:#858585;}.cls-172{fill:#232323;}.cls-173{fill:#b4b4b4;}.cls-174{fill:#888;}.cls-175{fill:#ebebeb;}.cls-176{fill:#484848;}.cls-177{fill:#c7c7c7;}.cls-178{fill:#464646;}.cls-179{fill:#dedede;}.cls-180{fill:#cfcfcf;}.cls-181{fill:#ccc;}.cls-182{fill:#f4f4f4;}.cls-183{fill:#b3b3b3;}.cls-184{fill:#828282;}.cls-185{fill:#696969;}.cls-186{fill:#545454;}.cls-187{fill:#a5a5a5;}.cls-188{fill:#c1c1c1;}.cls-189{fill:#6b6b6b;}.cls-190{fill:#f5f5f5;}.cls-191{fill:#353535;}.cls-192{fill:#a9a9a9;}.cls-193{fill:#b9b9b9;}.cls-194{fill:#aeaeae;}.cls-195{fill:#393939;}.cls-196{fill:#959595;}.cls-197{fill:#949494;}.cls-198{fill:#979797;}.cls-199{fill:#292929;}.cls-200{fill:#a3a3a3;}.cls-201{fill:#ababab;}.cls-202{fill:#aaa;}.cls-203{fill:gray;}.cls-204{fill:#565656;}.cls-205{fill:#c6c6c6;}.cls-206{fill:#dcdcdc;}.cls-207{fill:#0a0a0a;}.cls-208{fill:#b6b6b6;}.cls-209{fill:#4b4b4b;}.cls-210{fill:#dadada;}.cls-211{fill:#e4e4e4;}.cls-212{fill:#5d5d5d;}.cls-213{fill:#adadad;}.cls-214{fill:#ececec;}.cls-215{fill:#151515;}.cls-216{fill:#bcbcbc;}.cls-217{fill:#fefefe;}.cls-218{fill:#040404;}.cls-219{fill:#e7e7e7;}.cls-220{fill:#ededed;}.cls-221{fill:#d4d4d4;}.cls-222{fill:#b7b7b7;}.cls-223{fill:#a1a1a1;}.cls-224{fill:#3d3d3d;}.cls-225{fill:#fafafa;}.cls-226{fill:#d2d2d2;}.cls-227{fill:#070707;}.cls-228{fill:#eaeaea;}.cls-229{fill:#f8f8f8;}.cls-230{fill:#242424;}.cls-231{fill:#7a7a7a;}.cls-232{fill:#d1d1d1;}.cls-233{fill:#9d9d9d;}.cls-234{fill:#676767;}.cls-235{clip-path:url(#clippath);}.cls-236{fill:#343434;}.cls-237{fill:#101010;}.cls-238{fill:#d9d9d9;}.cls-239{fill:#f7f7f7;}.cls-240{fill:#787878;}.cls-241{fill:#bebebe;}.cls-242{fill:#fdfdfd;}.cls-243{fill:#323232;}.cls-244{fill:#707070;}.cls-245{fill:#5c5c5c;}.cls-246{fill:#414141;}.cls-247{fill:#818181;}.cls-248{fill:#161616;}.cls-249{fill:#b5b5b5;}.cls-250{fill:#2e2e2e;}.cls-251{fill:#f3f3f3;}.cls-252{fill:#e8e8e8;}.cls-253{fill:#e6e6e6;}.cls-254{fill:#989898;}.cls-255{fill:#afafaf;}.cls-256{fill:#a2a2a2;}</style><clipPath id="clippath"><path class="cls-82" d="M529.26,2v224H103.26V2h426M531.26,0H101.26v228h430V0h0Z"/></clipPath></defs><g id="Warstwa_1-2"><rect class="cls-60" x="101.26" width="430" height="228"/><g class="cls-235"><rect class="cls-60" x="101.26" width="1.69" height="228"/><rect class="cls-217" x="102.95" width="1.69" height="228"/><rect class="cls-242" x="104.63" width="1.69" height="228"/><rect class="cls-28" x="106.32" width="1.69" height="228"/><rect class="cls-93" x="108" width="1.69" height="228"/><rect class="cls-225" x="109.69" width="1.69" height="228"/><rect class="cls-97" x="111.38" width="1.69" height="228"/><rect class="cls-229" x="113.06" width="1.69" height="228"/><rect class="cls-239" x="114.75" width="1.69" height="228"/><rect class="cls-39" x="116.44" width="1.69" height="228"/><rect class="cls-190" x="118.12" width="1.69" height="228"/><rect class="cls-182" x="119.81" width="1.69" height="228"/><rect class="cls-251" x="121.5" width="1.69" height="228"/><rect class="cls-99" x="123.18" width="1.69" height="228"/><rect class="cls-125" x="124.87" width="1.69" height="228"/><rect class="cls-63" x="126.55" width="1.69" height="228"/><rect class="cls-152" x="128.24" width="1.69" height="228"/><rect class="cls-159" x="129.93" width="1.69" height="228"/><rect class="cls-220" x="131.61" width="1.69" height="228"/><rect class="cls-214" x="133.3" width="1.69" height="228"/><rect class="cls-175" x="134.99" width="1.69" height="228"/><rect class="cls-228" x="136.67" width="1.69" height="228"/><rect class="cls-73" x="138.36" width="1.69" height="228"/><rect class="cls-252" x="140.04" width="1.69" height="228"/><rect class="cls-219" x="141.73" width="1.69" height="228"/><rect class="cls-253" x="143.42" width="1.69" height="228"/><rect class="cls-87" x="145.1" width="1.69" height="228"/><rect class="cls-211" x="146.79" width="1.69" height="228"/><rect class="cls-103" x="148.48" width="1.69" height="228"/><rect class="cls-85" x="150.16" width="1.69" height="228"/><rect class="cls-77" x="151.85" width="1.69" height="228"/><rect class="cls-95" x="153.53" width="1.69" height="228"/><rect class="cls-158" x="155.22" width="1.69" height="228"/><rect class="cls-179" x="156.91" width="1.69" height="228"/><rect class="cls-147" x="158.59" width="1.69" height="228"/><rect class="cls-206" x="160.28" width="1.69" height="228"/><rect class="cls-130" x="161.97" width="1.69" height="228"/><rect class="cls-210" x="163.65" width="1.69" height="228"/><rect class="cls-238" x="165.34" width="1.69" height="228"/><rect class="cls-115" x="167.02" width="1.69" height="228"/><rect class="cls-32" x="168.71" width="1.69" height="228"/><rect class="cls-170" x="170.4" width="1.69" height="228"/><rect class="cls-90" x="172.08" width="1.69" height="228"/><rect class="cls-221" x="173.77" width="1.69" height="228"/><rect class="cls-134" x="175.46" width="1.69" height="228"/><rect class="cls-226" x="177.14" width="1.69" height="228"/><rect class="cls-232" x="178.83" width="1.69" height="228"/><rect class="cls-168" x="180.51" width="1.69" height="228"/><rect class="cls-180" x="182.2" width="1.69" height="228"/><rect class="cls-72" x="183.89" width="1.69" height="228"/><rect class="cls-65" x="185.57" width="1.69" height="228"/><rect class="cls-181" x="187.26" width="1.69" height="228"/><rect class="cls-139" x="188.95" width="1.69" height="228"/><rect class="cls-15" x="190.63" width="1.69" height="228"/><rect class="cls-59" x="192.32" width="1.69" height="228"/><rect class="cls-119" x="194" width="1.69" height="228"/><rect class="cls-177" x="195.69" width="1.69" height="228"/><rect class="cls-205" x="197.38" width="1.69" height="228"/><rect class="cls-151" x="199.06" width="1.69" height="228"/><rect class="cls-116" x="200.75" width="1.69" height="228"/><rect class="cls-25" x="202.44" width="1.69" height="228"/><rect class="cls-44" x="204.12" width="1.69" height="228"/><rect class="cls-188" x="205.81" width="1.69" height="228"/><rect class="cls-133" x="207.5" width="1.69" height="228"/><rect class="cls-110" x="209.18" width="1.69" height="228"/><rect class="cls-241" x="210.87" width="1.69" height="228"/><rect class="cls-107" x="212.55" width="1.69" height="228"/><rect class="cls-216" x="214.24" width="1.69" height="228"/><rect class="cls-101" x="215.93" width="1.69" height="228"/><rect class="cls-52" x="217.61" width="1.69" height="228"/><rect class="cls-193" x="219.3" width="1.69" height="228"/><rect class="cls-31" x="220.99" width="1.69" height="228"/><rect class="cls-222" x="222.67" width="1.69" height="228"/><rect class="cls-208" x="224.36" width="1.69" height="228"/><rect class="cls-249" x="226.04" width="1.69" height="228"/><rect class="cls-173" x="227.73" width="1.69" height="228"/><rect class="cls-183" x="229.42" width="1.69" height="228"/><rect class="cls-89" x="231.1" width="1.69" height="228"/><rect class="cls-33" x="232.79" width="1.69" height="228"/><rect class="cls-114" x="234.48" width="1.69" height="228"/><rect class="cls-255" x="236.16" width="1.69" height="228"/><rect class="cls-194" x="237.85" width="1.69" height="228"/><rect class="cls-213" x="239.53" width="1.69" height="228"/><rect class="cls-118" x="241.22" width="1.69" height="228"/><rect class="cls-201" x="242.91" width="1.69" height="228"/><rect class="cls-202" x="244.59" width="1.69" height="228"/><rect class="cls-192" x="246.28" width="1.69" height="228"/><rect class="cls-162" x="247.97" width="1.69" height="228"/><rect class="cls-34" x="249.65" width="1.69" height="228"/><rect class="cls-68" x="251.34" width="1.69" height="228"/><rect class="cls-187" x="253.02" width="1.69" height="228"/><rect class="cls-58" x="254.71" width="1.69" height="228"/><rect class="cls-200" x="256.4" width="1.69" height="228"/><rect class="cls-256" x="258.08" width="1.69" height="228"/><rect class="cls-223" x="259.77" width="1.69" height="228"/><rect class="cls-102" x="261.46" width="1.69" height="228"/><rect class="cls-49" x="263.14" width="1.69" height="228"/><rect class="cls-167" x="264.83" width="1.69" height="228"/><rect class="cls-233" x="266.51" width="1.69" height="228"/><rect class="cls-20" x="268.2" width="1.69" height="228"/><rect class="cls-75" x="269.89" width="1.69" height="228"/><rect class="cls-27" x="271.57" width="1.69" height="228"/><rect class="cls-160" x="273.26" width="1.69" height="228"/><rect class="cls-254" x="274.95" width="1.69" height="228"/><rect class="cls-198" x="276.63" width="1.69" height="228"/><rect class="cls-141" x="278.32" width="1.69" height="228"/><rect class="cls-196" x="280" width="1.69" height="228"/><rect class="cls-197" x="281.69" width="1.69" height="228"/><rect class="cls-136" x="283.38" width="1.69" height="228"/><rect class="cls-105" x="285.06" width="1.69" height="228"/><rect class="cls-169" x="286.75" width="1.69" height="228"/><rect class="cls-112" x="288.44" width="1.69" height="228"/><rect class="cls-54" x="290.12" width="1.69" height="228"/><rect class="cls-96" x="291.81" width="1.69" height="228"/><rect class="cls-86" x="293.5" width="1.69" height="228"/><rect class="cls-131" x="295.18" width="1.69" height="228"/><rect class="cls-19" x="296.87" width="1.69" height="228"/><rect class="cls-98" x="298.55" width="1.69" height="228"/><rect class="cls-13" x="300.24" width="1.69" height="228"/><rect class="cls-174" x="301.93" width="1.69" height="228"/><rect class="cls-137" x="303.61" width="1.69" height="228"/><rect class="cls-143" x="305.3" width="1.69" height="228"/><rect class="cls-171" x="306.99" width="1.69" height="228"/><rect class="cls-36" x="308.67" width="1.69" height="228"/><rect class="cls-22" x="310.36" width="1.69" height="228"/><rect class="cls-184" x="312.04" width="1.69" height="228"/><rect class="cls-247" x="313.73" width="1.69" height="228"/><rect class="cls-203" x="315.42" width="1.69" height="228"/><rect class="cls-53" x="317.1" width="1.69" height="228"/><rect class="cls-37" x="318.79" width="1.69" height="228"/><rect class="cls-11" x="320.48" width="1.69" height="228"/><rect class="cls-14" x="322.16" width="1.69" height="228"/><rect class="cls-231" x="323.85" width="1.69" height="228"/><rect class="cls-21" x="325.53" width="1.69" height="228"/><rect class="cls-240" x="327.22" width="1.69" height="228"/><rect class="cls-29" x="328.91" width="1.69" height="228"/><rect class="cls-45" x="330.59" width="1.69" height="228"/><rect class="cls-2" x="332.28" width="1.69" height="228"/><rect class="cls-161" x="333.97" width="1.69" height="228"/><rect class="cls-104" x="335.65" width="1.69" height="228"/><rect class="cls-30" x="337.34" width="1.69" height="228"/><rect class="cls-149" x="339.02" width="1.69" height="228"/><rect class="cls-244" x="340.71" width="1.69" height="228"/><rect class="cls-1" x="342.4" width="1.69" height="228"/><rect class="cls-69" x="344.08" width="1.69" height="228"/><rect class="cls-144" x="345.77" width="1.69" height="228"/><rect class="cls-121" x="347.46" width="1.69" height="228"/><rect class="cls-189" x="349.14" width="1.69" height="228"/><rect class="cls-91" x="350.83" width="1.69" height="228"/><rect class="cls-185" x="352.51" width="1.69" height="228"/><rect class="cls-128" x="354.2" width="1.69" height="228"/><rect class="cls-234" x="355.89" width="1.69" height="228"/><rect class="cls-129" x="357.57" width="1.69" height="228"/><rect class="cls-122" x="359.26" width="1.69" height="228"/><rect class="cls-4" x="360.95" width="1.69" height="228"/><rect class="cls-113" x="362.63" width="1.69" height="228"/><rect class="cls-56" x="364.32" width="1.69" height="228"/><rect class="cls-145" x="366" width="1.69" height="228"/><rect class="cls-76" x="367.69" width="1.69" height="228"/><rect class="cls-6" x="369.38" width="1.69" height="228"/><rect class="cls-61" x="371.06" width="1.69" height="228"/><rect class="cls-212" x="372.75" width="1.69" height="228"/><rect class="cls-245" x="374.44" width="1.69" height="228"/><rect class="cls-74" x="376.12" width="1.69" height="228"/><rect class="cls-9" x="377.81" width="1.69" height="228"/><rect class="cls-154" x="379.5" width="1.69" height="228"/><rect class="cls-8" x="381.18" width="1.69" height="228"/><rect class="cls-126" x="382.87" width="1.69" height="228"/><rect class="cls-204" x="384.55" width="1.69" height="228"/><rect class="cls-138" x="386.24" width="1.69" height="228"/><rect class="cls-186" x="387.93" width="1.69" height="228"/><rect class="cls-80" x="389.61" width="1.69" height="228"/><rect class="cls-3" x="391.3" width="1.69" height="228"/><rect class="cls-166" x="392.99" width="1.69" height="228"/><rect class="cls-42" x="394.67" width="1.69" height="228"/><rect class="cls-10" x="396.36" width="1.69" height="228"/><rect class="cls-38" x="398.04" width="1.69" height="228"/><rect class="cls-50" x="399.73" width="1.69" height="228"/><rect class="cls-83" x="401.42" width="1.69" height="228"/><rect class="cls-209" x="403.1" width="1.69" height="228"/><rect class="cls-35" x="404.79" width="1.69" height="228"/><rect class="cls-47" x="406.48" width="1.69" height="228"/><rect class="cls-176" x="408.16" width="1.69" height="228"/><rect class="cls-150" x="409.85" width="1.69" height="228"/><rect class="cls-178" x="411.53" width="1.69" height="228"/><rect class="cls-120" x="413.22" width="1.69" height="228"/><rect class="cls-132" x="414.91" width="1.69" height="228"/><rect class="cls-16" x="416.59" width="1.69" height="228"/><rect class="cls-71" x="418.28" width="1.69" height="228"/><rect class="cls-246" x="419.97" width="1.69" height="228"/><rect class="cls-100" x="421.65" width="1.69" height="228"/><rect class="cls-48" x="423.34" width="1.69" height="228"/><rect class="cls-40" x="425.02" width="1.69" height="228"/><rect class="cls-224" x="426.71" width="1.69" height="228"/><rect class="cls-67" x="428.4" width="1.69" height="228"/><rect class="cls-106" x="430.08" width="1.69" height="228"/><rect class="cls-117" x="431.77" width="1.69" height="228"/><rect class="cls-195" x="433.46" width="1.69" height="228"/><rect class="cls-64" x="435.14" width="1.69" height="228"/><rect class="cls-123" x="436.83" width="1.69" height="228"/><rect class="cls-109" x="438.51" width="1.69" height="228"/><rect class="cls-191" x="440.2" width="1.69" height="228"/><rect class="cls-236" x="441.89" width="1.69" height="228"/><rect class="cls-148" x="443.57" width="1.69" height="228"/><rect class="cls-243" x="445.26" width="1.69" height="228"/><rect class="cls-12" x="446.95" width="1.69" height="228"/><rect class="cls-84" x="448.63" width="1.69" height="228"/><rect class="cls-92" x="450.32" width="1.69" height="228"/><rect class="cls-250" x="452" width="1.69" height="228"/><rect class="cls-57" x="453.69" width="1.69" height="228"/><rect class="cls-23" x="455.38" width="1.69" height="228"/><rect class="cls-140" x="457.06" width="1.69" height="228"/><rect class="cls-26" x="458.75" width="1.69" height="228"/><rect class="cls-199" x="460.44" width="1.69" height="228"/><rect class="cls-111" x="462.12" width="1.69" height="228"/><rect class="cls-46" x="463.81" width="1.69" height="228"/><rect class="cls-79" x="465.5" width="1.69" height="228"/><rect class="cls-17" x="467.18" width="1.69" height="228"/><rect class="cls-230" x="468.87" width="1.69" height="228"/><rect class="cls-172" x="470.55" width="1.69" height="228"/><rect class="cls-135" x="472.24" width="1.69" height="228"/><rect class="cls-127" x="473.93" width="1.69" height="228"/><rect class="cls-124" x="475.61" width="1.69" height="228"/><rect class="cls-108" x="477.3" width="1.69" height="228"/><rect class="cls-62" x="478.99" width="1.69" height="228"/><rect class="cls-156" x="480.67" width="1.69" height="228"/><rect class="cls-88" x="482.36" width="1.69" height="228"/><rect class="cls-163" x="484.04" width="1.69" height="228"/><rect class="cls-155" x="485.73" width="1.69" height="228"/><rect class="cls-164" x="487.42" width="1.69" height="228"/><rect class="cls-5" x="489.1" width="1.69" height="228"/><rect class="cls-94" x="490.79" width="1.69" height="228"/><rect class="cls-248" x="492.48" width="1.69" height="228"/><rect class="cls-215" x="494.16" width="1.69" height="228"/><rect class="cls-24" x="495.85" width="1.69" height="228"/><rect class="cls-66" x="497.53" width="1.69" height="228"/><rect class="cls-41" x="499.22" width="1.69" height="228"/><rect class="cls-7" x="500.91" width="1.69" height="228"/><rect class="cls-237" x="502.59" width="1.69" height="228"/><rect class="cls-153" x="504.28" width="1.69" height="228"/><rect class="cls-157" x="505.97" width="1.69" height="228"/><rect class="cls-146" x="507.65" width="1.69" height="228"/><rect class="cls-51" x="509.34" width="1.69" height="228"/><rect class="cls-165" x="511.02" width="1.69" height="228"/><rect class="cls-207" x="512.71" width="1.69" height="228"/><rect class="cls-70" x="514.4" width="1.69" height="228"/><rect class="cls-43" x="516.08" width="1.69" height="228"/><rect class="cls-227" x="517.77" width="1.69" height="228"/><rect class="cls-81" x="519.46" width="1.69" height="228"/><rect class="cls-78" x="521.14" width="1.69" height="228"/><rect class="cls-218" x="522.83" width="1.69" height="228"/><rect class="cls-142" x="524.51" width="1.69" height="228"/><rect class="cls-55" x="526.2" width="1.69" height="228"/><rect class="cls-18" x="527.89" width="1.69" height="228"/><rect x="529.57" width="1.69" height="228"/><rect class="cls-217" x="103.26" y="2" width="1.37" height="224"/><rect class="cls-242" x="104.63" y="2" width="1.69" height="224"/><rect class="cls-28" x="106.32" y="2" width="1.69" height="224"/><rect class="cls-93" x="108" y="2" width="1.69" height="224"/><rect class="cls-225" x="109.69" y="2" width="1.69" height="224"/><rect class="cls-97" x="111.38" y="2" width="1.69" height="224"/><rect class="cls-229" x="113.06" y="2" width="1.69" height="224"/><rect class="cls-239" x="114.75" y="2" width="1.69" height="224"/><rect class="cls-39" x="116.44" y="2" width="1.69" height="224"/><rect class="cls-190" x="118.12" y="2" width="1.69" height="224"/><rect class="cls-182" x="119.81" y="2" width="1.69" height="224"/><rect class="cls-251" x="121.5" y="2" width="1.69" height="224"/><rect class="cls-99" x="123.18" y="2" width="1.69" height="224"/><rect class="cls-125" x="124.87" y="2" width="1.69" height="224"/><rect class="cls-63" x="126.55" y="2" width="1.69" height="224"/><rect class="cls-152" x="128.24" y="2" width="1.69" height="224"/><rect class="cls-159" x="129.93" y="2" width="1.69" height="224"/><rect class="cls-220" x="131.61" y="2" width="1.69" height="224"/><rect class="cls-214" x="133.3" y="2" width="1.69" height="224"/><rect class="cls-175" x="134.99" y="2" width="1.69" height="224"/><rect class="cls-228" x="136.67" y="2" width="1.69" height="224"/><rect class="cls-73" x="138.36" y="2" width="1.69" height="224"/><rect class="cls-252" x="140.04" y="2" width="1.69" height="224"/><rect class="cls-219" x="141.73" y="2" width="1.69" height="224"/><rect class="cls-253" x="143.42" y="2" width="1.69" height="224"/><rect class="cls-87" x="145.1" y="2" width="1.69" height="224"/><rect class="cls-211" x="146.79" y="2" width="1.69" height="224"/><rect class="cls-103" x="148.48" y="2" width="1.69" height="224"/><rect class="cls-85" x="150.16" y="2" width="1.69" height="224"/><rect class="cls-77" x="151.85" y="2" width="1.69" height="224"/><rect class="cls-95" x="153.53" y="2" width="1.69" height="224"/><rect class="cls-158" x="155.22" y="2" width="1.69" height="224"/><rect class="cls-179" x="156.91" y="2" width="1.69" height="224"/><rect class="cls-147" x="158.59" y="2" width="1.69" height="224"/><rect class="cls-206" x="160.28" y="2" width="1.69" height="224"/><rect class="cls-130" x="161.97" y="2" width="1.69" height="224"/><rect class="cls-210" x="163.65" y="2" width="1.69" height="224"/><rect class="cls-238" x="165.34" y="2" width="1.69" height="224"/><rect class="cls-115" x="167.02" y="2" width="1.69" height="224"/><rect class="cls-32" x="168.71" y="2" width="1.69" height="224"/><rect class="cls-170" x="170.4" y="2" width="1.69" height="224"/><rect class="cls-90" x="172.08" y="2" width="1.69" height="224"/><rect class="cls-221" x="173.77" y="2" width="1.69" height="224"/><rect class="cls-134" x="175.46" y="2" width="1.69" height="224"/><rect class="cls-226" x="177.14" y="2" width="1.69" height="224"/><rect class="cls-232" x="178.83" y="2" width="1.69" height="224"/><rect class="cls-168" x="180.51" y="2" width="1.69" height="224"/><rect class="cls-180" x="182.2" y="2" width="1.69" height="224"/><rect class="cls-72" x="183.89" y="2" width="1.69" height="224"/><rect class="cls-65" x="185.57" y="2" width="1.69" height="224"/><rect class="cls-181" x="187.26" y="2" width="1.69" height="224"/><rect class="cls-139" x="188.95" y="2" width="1.69" height="224"/><rect class="cls-15" x="190.63" y="2" width="1.69" height="224"/><rect class="cls-59" x="192.32" y="2" width="1.69" height="224"/><rect class="cls-119" x="194" y="2" width="1.69" height="224"/><rect class="cls-177" x="195.69" y="2" width="1.69" height="224"/><rect class="cls-205" x="197.38" y="2" width="1.69" height="224"/><rect class="cls-151" x="199.06" y="2" width="1.69" height="224"/><rect class="cls-116" x="200.75" y="2" width="1.69" height="224"/><rect class="cls-25" x="202.44" y="2" width="1.69" height="224"/><rect class="cls-44" x="204.12" y="2" width="1.69" height="224"/><rect class="cls-188" x="205.81" y="2" width="1.69" height="224"/><rect class="cls-133" x="207.5" y="2" width="1.69" height="224"/><rect class="cls-110" x="209.18" y="2" width="1.69" height="224"/><rect class="cls-241" x="210.87" y="2" width="1.69" height="224"/><rect class="cls-107" x="212.55" y="2" width="1.69" height="224"/><rect class="cls-216" x="214.24" y="2" width="1.69" height="224"/><rect class="cls-101" x="215.93" y="2" width="1.69" height="224"/><rect class="cls-52" x="217.61" y="2" width="1.69" height="224"/><rect class="cls-193" x="219.3" y="2" width="1.69" height="224"/><rect class="cls-31" x="220.99" y="2" width="1.69" height="224"/><rect class="cls-222" x="222.67" y="2" width="1.69" height="224"/><rect class="cls-208" x="224.36" y="2" width="1.69" height="224"/><rect class="cls-249" x="226.04" y="2" width="1.69" height="224"/><rect class="cls-173" x="227.73" y="2" width="1.69" height="224"/><rect class="cls-183" x="229.42" y="2" width="1.69" height="224"/><rect class="cls-89" x="231.1" y="2" width="1.69" height="224"/><rect class="cls-33" x="232.79" y="2" width="1.69" height="224"/><rect class="cls-114" x="234.48" y="2" width="1.69" height="224"/><rect class="cls-255" x="236.16" y="2" width="1.69" height="224"/><rect class="cls-194" x="237.85" y="2" width="1.69" height="224"/><rect class="cls-213" x="239.53" y="2" width="1.69" height="224"/><rect class="cls-118" x="241.22" y="2" width="1.69" height="224"/><rect class="cls-201" x="242.91" y="2" width="1.69" height="224"/><rect class="cls-202" x="244.59" y="2" width="1.69" height="224"/><rect class="cls-192" x="246.28" y="2" width="1.69" height="224"/><rect class="cls-162" x="247.97" y="2" width="1.69" height="224"/><rect class="cls-34" x="249.65" y="2" width="1.69" height="224"/><rect class="cls-68" x="251.34" y="2" width="1.69" height="224"/><rect class="cls-187" x="253.02" y="2" width="1.69" height="224"/><rect class="cls-58" x="254.71" y="2" width="1.69" height="224"/><rect class="cls-200" x="256.4" y="2" width="1.69" height="224"/><rect class="cls-256" x="258.08" y="2" width="1.69" height="224"/><rect class="cls-223" x="259.77" y="2" width="1.69" height="224"/><rect class="cls-102" x="261.46" y="2" width="1.69" height="224"/><rect class="cls-49" x="263.14" y="2" width="1.69" height="224"/><rect class="cls-167" x="264.83" y="2" width="1.69" height="224"/><rect class="cls-233" x="266.51" y="2" width="1.69" height="224"/><rect class="cls-20" x="268.2" y="2" width="1.69" height="224"/><rect class="cls-75" x="269.89" y="2" width="1.69" height="224"/><rect class="cls-27" x="271.57" y="2" width="1.69" height="224"/><rect class="cls-160" x="273.26" y="2" width="1.69" height="224"/><rect class="cls-254" x="274.95" y="2" width="1.69" height="224"/><rect class="cls-198" x="276.63" y="2" width="1.69" height="224"/><rect class="cls-141" x="278.32" y="2" width="1.69" height="224"/><rect class="cls-196" x="280" y="2" width="1.69" height="224"/><rect class="cls-197" x="281.69" y="2" width="1.69" height="224"/><rect class="cls-136" x="283.38" y="2" width="1.69" height="224"/><rect class="cls-105" x="285.06" y="2" width="1.69" height="224"/><rect class="cls-169" x="286.75" y="2" width="1.69" height="224"/><rect class="cls-112" x="288.44" y="2" width="1.69" height="224"/><rect class="cls-54" x="290.12" y="2" width="1.69" height="224"/><rect class="cls-96" x="291.81" y="2" width="1.69" height="224"/><rect class="cls-86" x="293.5" y="2" width="1.69" height="224"/><rect class="cls-131" x="295.18" y="2" width="1.69" height="224"/><rect class="cls-19" x="296.87" y="2" width="1.69" height="224"/><rect class="cls-98" x="298.55" y="2" width="1.69" height="224"/><rect class="cls-13" x="300.24" y="2" width="1.69" height="224"/><rect class="cls-174" x="301.93" y="2" width="1.69" height="224"/><rect class="cls-137" x="303.61" y="2" width="1.69" height="224"/><rect class="cls-143" x="305.3" y="2" width="1.69" height="224"/><rect class="cls-171" x="306.99" y="2" width="1.69" height="224"/><rect class="cls-36" x="308.67" y="2" width="1.69" height="224"/><rect class="cls-22" x="310.36" y="2" width="1.69" height="224"/><rect class="cls-184" x="312.04" y="2" width="1.69" height="224"/><rect class="cls-247" x="313.73" y="2" width="1.69" height="224"/><rect class="cls-203" x="315.42" y="2" width="1.69" height="224"/><rect class="cls-53" x="317.1" y="2" width="1.69" height="224"/><rect class="cls-37" x="318.79" y="2" width="1.69" height="224"/><rect class="cls-11" x="320.48" y="2" width="1.69" height="224"/><rect class="cls-14" x="322.16" y="2" width="1.69" height="224"/><rect class="cls-231" x="323.85" y="2" width="1.69" height="224"/><rect class="cls-21" x="325.53" y="2" width="1.69" height="224"/><rect class="cls-240" x="327.22" y="2" width="1.69" height="224"/><rect class="cls-29" x="328.91" y="2" width="1.69" height="224"/><rect class="cls-45" x="330.59" y="2" width="1.69" height="224"/><rect class="cls-2" x="332.28" y="2" width="1.69" height="224"/><rect class="cls-161" x="333.97" y="2" width="1.69" height="224"/><rect class="cls-104" x="335.65" y="2" width="1.69" height="224"/><rect class="cls-30" x="337.34" y="2" width="1.69" height="224"/><rect class="cls-149" x="339.02" y="2" width="1.69" height="224"/><rect class="cls-244" x="340.71" y="2" width="1.69" height="224"/><rect class="cls-1" x="342.4" y="2" width="1.69" height="224"/><rect class="cls-69" x="344.08" y="2" width="1.69" height="224"/><rect class="cls-144" x="345.77" y="2" width="1.69" height="224"/><rect class="cls-121" x="347.46" y="2" width="1.69" height="224"/><rect class="cls-189" x="349.14" y="2" width="1.69" height="224"/><rect class="cls-91" x="350.83" y="2" width="1.69" height="224"/><rect class="cls-185" x="352.51" y="2" width="1.69" height="224"/><rect class="cls-128" x="354.2" y="2" width="1.69" height="224"/><rect class="cls-234" x="355.89" y="2" width="1.69" height="224"/><rect class="cls-129" x="357.57" y="2" width="1.69" height="224"/><rect class="cls-122" x="359.26" y="2" width="1.69" height="224"/><rect class="cls-4" x="360.95" y="2" width="1.69" height="224"/><rect class="cls-113" x="362.63" y="2" width="1.69" height="224"/><rect class="cls-56" x="364.32" y="2" width="1.69" height="224"/><rect class="cls-145" x="366" y="2" width="1.69" height="224"/><rect class="cls-76" x="367.69" y="2" width="1.69" height="224"/><rect class="cls-6" x="369.38" y="2" width="1.69" height="224"/><rect class="cls-61" x="371.06" y="2" width="1.69" height="224"/><rect class="cls-212" x="372.75" y="2" width="1.69" height="224"/><rect class="cls-245" x="374.44" y="2" width="1.69" height="224"/><rect class="cls-74" x="376.12" y="2" width="1.69" height="224"/><rect class="cls-9" x="377.81" y="2" width="1.69" height="224"/><rect class="cls-154" x="379.5" y="2" width="1.69" height="224"/><rect class="cls-8" x="381.18" y="2" width="1.69" height="224"/><rect class="cls-126" x="382.87" y="2" width="1.69" height="224"/><rect class="cls-204" x="384.55" y="2" width="1.69" height="224"/><rect class="cls-138" x="386.24" y="2" width="1.69" height="224"/><rect class="cls-186" x="387.93" y="2" width="1.69" height="224"/><rect class="cls-80" x="389.61" y="2" width="1.69" height="224"/><rect class="cls-3" x="391.3" y="2" width="1.69" height="224"/><rect class="cls-166" x="392.99" y="2" width="1.69" height="224"/><rect class="cls-42" x="394.67" y="2" width="1.69" height="224"/><rect class="cls-10" x="396.36" y="2" width="1.69" height="224"/><rect class="cls-38" x="398.04" y="2" width="1.69" height="224"/><rect class="cls-50" x="399.73" y="2" width="1.69" height="224"/><rect class="cls-83" x="401.42" y="2" width="1.69" height="224"/><rect class="cls-209" x="403.1" y="2" width="1.69" height="224"/><rect class="cls-35" x="404.79" y="2" width="1.69" height="224"/><rect class="cls-47" x="406.48" y="2" width="1.69" height="224"/><rect class="cls-176" x="408.16" y="2" width="1.69" height="224"/><rect class="cls-150" x="409.85" y="2" width="1.69" height="224"/><rect class="cls-178" x="411.53" y="2" width="1.69" height="224"/><rect class="cls-120" x="413.22" y="2" width="1.69" height="224"/><rect class="cls-132" x="414.91" y="2" width="1.69" height="224"/><rect class="cls-16" x="416.59" y="2" width="1.69" height="224"/><rect class="cls-71" x="418.28" y="2" width="1.69" height="224"/><rect class="cls-246" x="419.97" y="2" width="1.69" height="224"/><rect class="cls-100" x="421.65" y="2" width="1.69" height="224"/><rect class="cls-48" x="423.34" y="2" width="1.69" height="224"/><rect class="cls-40" x="425.02" y="2" width="1.69" height="224"/><rect class="cls-224" x="426.71" y="2" width="1.69" height="224"/><rect class="cls-67" x="428.4" y="2" width="1.69" height="224"/><rect class="cls-106" x="430.08" y="2" width="1.69" height="224"/><rect class="cls-117" x="431.77" y="2" width="1.69" height="224"/><rect class="cls-195" x="433.46" y="2" width="1.69" height="224"/><rect class="cls-64" x="435.14" y="2" width="1.69" height="224"/><rect class="cls-123" x="436.83" y="2" width="1.69" height="224"/><rect class="cls-109" x="438.51" y="2" width="1.69" height="224"/><rect class="cls-191" x="440.2" y="2" width="1.69" height="224"/><rect class="cls-236" x="441.89" y="2" width="1.69" height="224"/><rect class="cls-148" x="443.57" y="2" width="1.69" height="224"/><rect class="cls-243" x="445.26" y="2" width="1.69" height="224"/><rect class="cls-12" x="446.95" y="2" width="1.69" height="224"/><rect class="cls-84" x="448.63" y="2" width="1.69" height="224"/><rect class="cls-92" x="450.32" y="2" width="1.69" height="224"/><rect class="cls-250" x="452" y="2" width="1.69" height="224"/><rect class="cls-57" x="453.69" y="2" width="1.69" height="224"/><rect class="cls-23" x="455.38" y="2" width="1.69" height="224"/><rect class="cls-140" x="457.06" y="2" width="1.69" height="224"/><rect class="cls-26" x="458.75" y="2" width="1.69" height="224"/><rect class="cls-199" x="460.44" y="2" width="1.69" height="224"/><rect class="cls-111" x="462.12" y="2" width="1.69" height="224"/><rect class="cls-46" x="463.81" y="2" width="1.69" height="224"/><rect class="cls-79" x="465.5" y="2" width="1.69" height="224"/><rect class="cls-17" x="467.18" y="2" width="1.69" height="224"/><rect class="cls-230" x="468.87" y="2" width="1.69" height="224"/><rect class="cls-172" x="470.55" y="2" width="1.69" height="224"/><rect class="cls-135" x="472.24" y="2" width="1.69" height="224"/><rect class="cls-127" x="473.93" y="2" width="1.69" height="224"/><rect class="cls-124" x="475.61" y="2" width="1.69" height="224"/><rect class="cls-108" x="477.3" y="2" width="1.69" height="224"/><rect class="cls-62" x="478.99" y="2" width="1.69" height="224"/><rect class="cls-156" x="480.67" y="2" width="1.69" height="224"/><rect class="cls-88" x="482.36" y="2" width="1.69" height="224"/><rect class="cls-163" x="484.04" y="2" width="1.69" height="224"/><rect class="cls-155" x="485.73" y="2" width="1.69" height="224"/><rect class="cls-164" x="487.42" y="2" width="1.69" height="224"/><rect class="cls-5" x="489.1" y="2" width="1.69" height="224"/><rect class="cls-94" x="490.79" y="2" width="1.69" height="224"/><rect class="cls-248" x="492.48" y="2" width="1.69" height="224"/><rect class="cls-215" x="494.16" y="2" width="1.69" height="224"/><rect class="cls-24" x="495.85" y="2" width="1.69" height="224"/><rect class="cls-66" x="497.53" y="2" width="1.69" height="224"/><rect class="cls-41" x="499.22" y="2" width="1.69" height="224"/><rect class="cls-7" x="500.91" y="2" width="1.69" height="224"/><rect class="cls-237" x="502.59" y="2" width="1.69" height="224"/><rect class="cls-153" x="504.28" y="2" width="1.69" height="224"/><rect class="cls-157" x="505.97" y="2" width="1.69" height="224"/><rect class="cls-146" x="507.65" y="2" width="1.69" height="224"/><rect class="cls-51" x="509.34" y="2" width="1.69" height="224"/><rect class="cls-165" x="511.02" y="2" width="1.69" height="224"/><rect class="cls-207" x="512.71" y="2" width="1.69" height="224"/><rect class="cls-70" x="514.4" y="2" width="1.69" height="224"/><rect class="cls-43" x="516.08" y="2" width="1.69" height="224"/><rect class="cls-227" x="517.77" y="2" width="1.69" height="224"/><rect class="cls-81" x="519.46" y="2" width="1.69" height="224"/><rect class="cls-78" x="521.14" y="2" width="1.69" height="224"/><rect class="cls-218" x="522.83" y="2" width="1.69" height="224"/><rect class="cls-142" x="524.51" y="2" width="1.69" height="224"/><rect class="cls-55" x="526.2" y="2" width="1.69" height="224"/><rect class="cls-18" x="527.89" y="2" width="1.37" height="224"/></g><rect class="cls-60" x="29.17" y="66" width="605" height="101"/><path d="M102.4,72.99c-3.54,3.46-10.08,11.74-15.95,20.39-.75,1.13-1.5,2.26-2.18,3.31,8.28-.45,9.86-2.26,10.53-3.08l.9.53c-.9,1.28-5.27,10.91-15.58,10.91h-.9c-2.71,5.04-4.29,8.8-4.29,10.31,0,2.18,1.5,3.54,3.91,3.54,3.16,0,7.15-3.84,7.6-4.67,0,0,.75.83.83.83v-.08c0,.45-6.55,11.21-14.52,11.21-4.51,0-7.6-3.76-7.6-9.33,0-3.61,1.43-7.9,3.69-12.42-5.64-.53-10.53-1.5-14.97-2.56-11.29,11.66-23.55,22.27-35.97,22.27S0,116.63,0,108.43c0-9.78,8.58-20.47,26.11-20.47,9.18,0,17.61,2.63,26.94,4.97,12.11-12.79,24.3-25.58,36.19-25.58,7.52,0,14.82,2.71,14.82,3.76,0,.38-.75.98-1.66,1.88ZM24.15,96.09c-13.47,0-19.49,6.62-19.49,12.72,0,5.19,4.44,10.08,12.34,10.08,9.56,0,19.41-8.73,29.42-18.96-7.45-2.03-14.15-3.84-22.27-3.84ZM90.36,71.63c-8.35,0-18.51,11.14-29.72,23.1,3.99.83,8.13,1.5,12.64,1.88,1.2-2.03,2.56-3.91,3.84-5.79,6.85-9.78,14.07-18.13,14.07-18.81,0-.3-.68-.38-.83-.38Z"/><path d="M120.17,118.59c-6.47,13.47-14.15,32.43-27.39,32.43-6.77,0-12.42-3.91-12.42-10.01,0-7.37,6.7-12.94,12.57-12.94,3.46,0,5.42,2.18,5.42,4.44,0,2.41-1.88,3.99-2.18,3.99-.15,0-.15-.08-.15-.15v-.6c0-.9-1.58-1.5-3.61-1.5-4.59,0-7.52,3.24-7.52,6.09,0,3.16,2.41,4.89,5.12,4.89,6.32,0,10.91-8.35,13.17-12.87,2.33-4.44,4.06-9.41,4.21-10.16-2.41,2.78-5.04,3.91-7.52,3.91-4.89,0-9.1-4.82-9.1-10.83,0-14.75,15.88-27.69,25.58-27.69,3.61,0,6.32,1.81,7.07,5.94.38-.45,3.01-4.06,3.84-4.51.6-.38,1.66-.45,2.63-.45h.9c1.05,0,3.24.6,3.24,1.66,0,1.73-7.45,14.9-13.84,28.37ZM116.71,92.93c-6.92,0-16.55,15.2-16.55,21.82,0,2.26,1.05,4.21,3.16,4.21,5.27,0,16.03-17.83,16.03-22.12,0-2.33-.6-3.91-2.63-3.91Z"/><path d="M151.24,126.26c-3.54,0-6.92-2.78-6.92-6.7,0-8.58,7.9-20.77,9.86-23.48l-.3-.15c-4.14,3.99-12.26,13.09-16.48,19.49-4.14,6.32-5.64,10.76-7.22,10.76s-4.82-2.26-4.82-5.04c0-3.54,14.37-33.63,17.68-33.63,1.13,0,5.19.98,5.19,3.08,0,1.88-2.56,7.45-2.93,8.73l.08.08c1.35-1.35,9.93-11.36,14.07-11.36,2.78,0,6.4,1.88,6.4,3.24,0,2.03-.9,3.31-1.96,5.34-.98,2.03-9.48,17.38-9.48,20.62,0,.9.23,1.58,1.73,1.58,3.91,0,12.11-13.47,12.79-13.47s.98,1.28.98,2.56c0,2.18-11.29,18.36-18.66,18.36Z"/><path d="M171.11,126.34c-3.76,0-6.17-4.36-6.17-8.65,0-9.18,11.74-28.14,15.58-29.72.3-.08,1.05-.15,1.96-.15,1.88,0,4.51.38,4.51,1.66,0,.15-.08.38-.23.6-1.58,3.01-12.87,22.72-12.87,27.91,0,1.13.45,1.58,1.05,1.58,4.66,0,13.32-14.22,13.99-14.22.83,0,.9,1.73.9,2.78,0,1.35-10.91,18.21-18.73,18.21ZM189.54,83.37c-3.54,0-6.62-2.56-6.62-6.17,0-3.91,3.54-6.92,7.3-6.92,3.54,0,6.62,2.56,6.62,6.17,0,3.91-3.54,6.92-7.3,6.92Z"/><path d="M194.81,126.64c-5.12,0-9.1-5.19-9.1-11.36,0-9.56,11.29-26.71,21.37-26.71,2.71,0,4.14-.83,5.72-.83,2.41,0,4.67,2.78,4.67,5.72,0,5.64-8.35,15.42-20.47,15.42-.23,0-.45,0-.68-.08-.98,2.26-1.58,4.36-1.58,6.17,0,3.31,1.2,5.42,3.99,5.42,10.01,0,18.28-14.9,19.19-14.9.83,0,.9,1.35.9,2.48,0,2.71-11.51,18.66-24,18.66ZM210.54,92.1c-2.63,0-8.58,6.32-12.34,12.94,5.94-1.28,13.69-7.37,13.69-11.66,0-.83-.45-1.28-1.35-1.28Z"/><path d="M245.6,100.23c-.38,1.88-.83,4.14-1.43,6.62.68.23,1.28.3,1.73.3,1.58,0,1.88-.98,2.03-.98.38,0,.45.08.45.38v.15c.08,4.36-2.86,6.92-5.72,6.92h-.6c-3.69,9.1-11.14,13.09-17.68,13.09s-12.11-3.99-12.11-10.91c0-6.32,5.19-13.17,13.09-13.17,1.05,0,2.11.08,3.16.23,2.18-2.48,4.89-5.87,7.22-9.4,4.14-6.25,10.08-9.78,12.94-9.78,1.88,0,3.31.68,3.31,1.73,0,1.73-4.97,8.35-6.4,14.82ZM225.21,110.69c-4.97,0-7.52,3.24-7.52,6.17,0,2.33,1.66,4.51,5.04,4.51s7.75-2.56,10.08-9.4c-2.71-.68-5.19-1.28-7.6-1.28ZM236.57,97.89c-.6.83-2.56,3.31-4.51,5.64.98.3,1.96.53,2.93.83.75-2.78,1.35-4.97,1.81-6.32l-.23-.15Z"/><path d="M275.78,122.65c1.43,1.43,2.56,3.46,2.56,6.17,0,10.68-14.52,32.96-25.66,32.96-3.69,0-6.17-1.81-6.17-5.64,0-10.99,13.09-22.95,21.07-30.17-2.18-.98-5.04-1.28-7.07-1.28-4.14,0-8.13,1.58-10.76,1.58-1.05,0-1.96-.3-1.96-1.5,0-1.05,2.63-2.03,6.32-4.97,4.74-3.76,17.23-18.36,17.23-24.83,0-1.66-.75-2.71-2.56-2.71-3.54,0-11.21,10.76-14.07,14.97-.83,1.2-1.66,2.56-2.48,3.69-.3.3-.83.3-1.13.3-.68,0-1.58-.23-1.58-1.13,0-.68,1.73-2.93,2.26-3.54,4.36-6.02,12.49-18.73,20.47-18.73,5.34,0,8.58,4.21,8.58,9.4,0,11.59-13.02,21.37-13.39,21.37,1.28.3,3.69.98,5.64,2.11,4.06-4.36,7.67-9.03,11.21-13.77.3-.3.9-1.28,1.35-1.28.75,0,.9,2.03.9,2.48,0,1.58-5.79,8.73-10.76,14.52ZM270.36,128.59c-.6.6-1.05,1.05-1.35,1.35-5.57,4.74-15.88,15.8-15.88,23.32,0,.9.38,1.43,1.28,1.43,5.04,0,16.33-15.58,16.33-24.23,0-.68-.15-1.35-.38-1.88Z"/><path d="M302.49,126.56c-4.82,0-7.98-3.84-7.98-8.2,0-5.42,2.18-10.23,3.39-12.57l-.23-.23c-2.93,2.78-7.6,9.18-10.08,13.84-2.41,4.59-2.56,7-3.54,7-1.66,0-5.57-2.71-5.57-5.79s6.7-15.5,12.26-25.58c5.49-10.01,13.02-23.55,16.18-23.55,1.58,0,4.51.98,4.51,2.93,0,3.01-2.33,6.7-5.34,11.44-2.93,4.82-5.87,10.16-6.47,11.36l.38.08c2.33-2.18,10.91-9.56,18.43-9.56,3.01,0,5.34,1.58,5.34,4.51,0,4.89-7,14.22-13.09,14.22-1.81,0-2.48-.75-2.78-.75-.23,0-4.21,10.61-4.21,13.54,0,1.13.68,2.11,2.33,2.11,8.88,0,17.83-15.95,18.73-15.95.6,0,.98,1.66.98,2.63,0,.68-9.71,18.51-23.25,18.51ZM316.86,90.75c-1.13,0-11.14,6.25-11.14,7.22,0,.38.98,1.13,2.33,1.13,2.26,0,9.25-5.79,9.25-7.9,0-.3-.15-.45-.45-.45Z"/><path d="M347.94,125.81c-5.27,0-6.47-6.25-6.7-6.25s-5.72,6.92-11.96,6.92c-4.14,0-8.2-3.39-8.2-10.08,0-11.06,13.09-28.52,25.43-28.52,6.09,0,6.62,5.19,6.85,5.19.38,0,4.36-4.89,5.72-4.89s1.28.23,2.18.45c.75.15,1.88.3,1.88,1.35,0,4.14-13.24,22.8-13.24,27.46,0,.75.38,1.28,1.13,1.28,4.82,0,12.72-13.32,13.47-13.32.68,0,.98,1.28.98,2.71s-10.99,17.68-17.53,17.68ZM345.38,92.03c-6.09,0-14.9,15.73-14.9,23.1,0,2.41.83,3.76,2.33,3.76,1.96,0,7.22-3.61,7.22-5.04,0-.6-1.58-.75-2.18-.75v-.6c1.96-.53,10.61-9.4,10.61-16.33,0-2.33-1.28-4.14-3.08-4.14Z"/><path d="M468.18,95.79c-5.34,10.91-10.38,21.52-10.38,30.92,0,5.27,2.93,8.2,6.77,8.2,3.01,0,4.29-1.96,4.74-1.96.38,0,.53.38.53.68,0,1.28-5.27,7.52-10.91,7.52-6.17,0-11.36-5.57-11.36-13.99,0-15.2,14.67-40.4,18.81-46.57l-.38-.08c-5.79,7-27.46,40.71-30.55,43.34-1.96,1.66-3.39,2.56-7,2.56-2.03,0-3.84-.53-3.84-1.5,0-1.05,1.05-1.96,1.96-3.54.9-1.66,13.24-33.18,15.42-39.5h-.68c-6.7,9.03-24.38,44.99-43.87,44.99-9.18,0-14.45-6.85-14.45-16.33,0-12.49,12.42-24.53,24.15-24.53,6.24,0,10.31,5.42,10.31,10.99,0,7.3-7.98,16.55-15.5,16.55-3.08,0-4.82-.6-4.82-.98,0-.45,1.5-.45,2.86-1.13,1.28-.68,9.78-6.7,9.78-14.97,0-3.99-1.81-6.47-4.89-6.47-7.37,0-15.12,11.51-15.12,19.34,0,6.77,3.61,10.46,10.01,10.46,10.61,0,20.62-15.95,27.46-26.94,4.97-7.9,12.42-18.96,17.98-23.85,2.18-1.96,5.49-1.81,6.17-1.81,2.33,0,4.36.38,4.36,2.93,0,3.69-12.11,32.2-14.37,37.54l.45.3c6.62-10.61,23.48-35.81,29.57-39.5,1.96-1.13,3.84-1.2,5.49-1.2s3.91.53,3.91,2.86c0,3.31-7.3,14.75-12.64,25.66Z"/><path d="M494.14,125.81c-5.27,0-6.47-6.25-6.7-6.25s-5.72,6.92-11.96,6.92c-4.14,0-8.2-3.39-8.2-10.08,0-11.06,13.09-28.52,25.43-28.52,6.09,0,6.62,5.19,6.85,5.19.38,0,4.36-4.89,5.72-4.89s1.28.23,2.18.45c.75.15,1.88.3,1.88,1.35,0,4.14-13.24,22.8-13.24,27.46,0,.75.38,1.28,1.13,1.28,4.82,0,12.72-13.32,13.47-13.32.68,0,.98,1.28.98,2.71s-10.99,17.68-17.53,17.68ZM491.58,92.03c-6.09,0-14.9,15.73-14.9,23.1,0,2.41.83,3.76,2.33,3.76,1.96,0,7.22-3.61,7.22-5.04,0-.6-1.58-.75-2.18-.75v-.6c1.96-.53,10.61-9.4,10.61-16.33,0-2.33-1.28-4.14-3.08-4.14Z"/><path d="M522.74,126.18c-4.74,0-8.43-2.78-8.43-8.2,0-7.37,10.16-20.92,10.16-21.14,0-.15-2.48-1.2-3.76-1.2-.3,0-.53.08-.6.23-3.69,6.02-7.37,11.51-10.01,15.27-.23.38-.53.6-.83.6-.68,0-1.13-.9-1.13-2.26,0-.53.45-1.28.68-1.66.98-1.43,2.93-4.36,4.97-8.65,2.26-4.51,2.71-7.75,4.14-11.14,1.5-3.76,2.63-4.51,5.12-4.51,1.13,0,1.73.68,1.73,1.96,0,1.5-.75,2.11-.75,2.33,0,.3.45.53,1.66.53,3.54,0,7.75-.6,8.8-.6,2.11,0,4.89,4.14,4.89,5.87,0,1.35-2.33,2.56-3.99,4.44-2.86,3.08-10.61,14-10.61,19.86,0,.53.3,1.13,1.05,1.13,1.88,0,5.27-2.93,7.83-6.09,2.86-3.46,5.27-7.22,5.64-7.22.68,0,.98,1.35.98,2.71,0,1.43-10.99,17.76-17.53,17.76Z"/><path d="M562.54,122.65c1.43,1.43,2.56,3.46,2.56,6.17,0,10.68-14.52,32.96-25.66,32.96-3.69,0-6.17-1.81-6.17-5.64,0-10.99,13.09-22.95,21.07-30.17-2.18-.98-5.04-1.28-7.07-1.28-4.14,0-8.13,1.58-10.76,1.58-1.05,0-1.96-.3-1.96-1.5,0-1.05,2.63-2.03,6.32-4.97,4.74-3.76,17.23-18.36,17.23-24.83,0-1.66-.75-2.71-2.56-2.71-3.54,0-11.21,10.76-14.07,14.97-.83,1.2-1.66,2.56-2.48,3.69-.3.3-.83.3-1.13.3-.68,0-1.58-.23-1.58-1.13,0-.68,1.73-2.93,2.26-3.54,4.36-6.02,12.49-18.73,20.47-18.73,5.34,0,8.58,4.21,8.58,9.4,0,11.59-13.02,21.37-13.39,21.37,1.28.3,3.69.98,5.64,2.11,4.06-4.36,7.68-9.03,11.21-13.77.3-.3.9-1.28,1.36-1.28.75,0,.9,2.03.9,2.48,0,1.58-5.79,8.73-10.76,14.52ZM557.12,128.59c-.6.6-1.05,1.05-1.36,1.35-5.57,4.74-15.88,15.8-15.88,23.32,0,.9.38,1.43,1.28,1.43,5.04,0,16.33-15.58,16.33-24.23,0-.68-.15-1.35-.38-1.88Z"/><path d="M578.27,126.64c-5.12,0-9.1-5.19-9.1-11.36,0-9.56,11.29-26.71,21.37-26.71,2.71,0,4.14-.83,5.72-.83,2.41,0,4.66,2.78,4.66,5.72,0,5.64-8.35,15.42-20.46,15.42-.23,0-.45,0-.68-.08-.98,2.26-1.58,4.36-1.58,6.17,0,3.31,1.21,5.42,3.99,5.42,10.01,0,18.28-14.9,19.19-14.9.83,0,.9,1.35.9,2.48,0,2.71-11.51,18.66-24,18.66ZM593.99,92.1c-2.63,0-8.58,6.32-12.34,12.94,5.95-1.28,13.7-7.37,13.7-11.66,0-.83-.45-1.28-1.36-1.28Z"/><path d="M608.74,127.24c-5.64,0-10.61-3.76-10.61-11.89,0-9.56,10.61-26.94,20.99-26.94,2.41,0,3.08-.68,5.49-.68,3.46,0,6.09,1.73,6.09,7.37,0,4.14-3.08,7.07-4.96,8.05-1.96,1.05-4.14,1.81-5.27,1.81-.53,0-.45-.15-.45-.38s.38-.23.9-.98c.53-.83,2.63-5.64,2.63-9.78,0-1.05-.22-1.73-.98-1.73-2.63,0-14.67,14.45-14.67,23.78,0,3.24,2.48,5.19,4.74,5.19,11.13,0,19.26-15.57,20.16-15.57s.9,1.73.9,2.63c0,1.35-10.23,19.11-24.98,19.11Z"/></g></svg>